<svg xmlns="http://www.w3.org/2000/svg" width="64" height="64" viewBox="0 0 64 64" role="img" aria-labelledby="title desc">
  <title id="title">Keyframe icon</title>
  <desc id="desc">A teal film frame containing code brackets and an orange cursor</desc>
  <rect width="64" height="64" rx="14" fill="#0B1220"/>
  <rect x="9" y="12" width="46" height="40" rx="5" fill="none" stroke="#2DD4BF" stroke-width="3"/>
  <g fill="#99F6E4">
    <rect x="13" y="16" width="5" height="4" rx="1"/>
    <rect x="23" y="16" width="5" height="4" rx="1"/>
    <rect x="36" y="16" width="5" height="4" rx="1"/>
    <rect x="46" y="16" width="5" height="4" rx="1"/>
    <rect x="13" y="44" width="5" height="4" rx="1"/>
    <rect x="23" y="44" width="5" height="4" rx="1"/>
    <rect x="36" y="44" width="5" height="4" rx="1"/>
    <rect x="46" y="44" width="5" height="4" rx="1"/>
  </g>
  <path d="M25 27l-5 5 5 5M34 26l-4 12M39 27l5 5-5 5" fill="none" stroke="#F8FAFC" stroke-width="3" stroke-linecap="round" stroke-linejoin="round"/>
  <path d="M43 36l8 3.5-3.4 1.4-1.4 3.4L43 36z" fill="#F59E0B" stroke="#0B1220" stroke-width="1.25" stroke-linejoin="round"/>
</svg>
