<svg xmlns="http://www.w3.org/2000/svg" width="360" height="96" viewBox="0 0 360 96" role="img" aria-labelledby="title desc">
  <title id="title">Keyframe</title>
  <desc id="desc">Keyframe dark-mode wordmark with a film frame, code brackets, and cursor</desc>
  <g transform="translate(8 8) scale(1.25)">
    <rect width="64" height="64" rx="14" fill="#111827" stroke="#334155"/>
    <rect x="9" y="12" width="46" height="40" rx="5" fill="none" stroke="#5EEAD4" stroke-width="3"/>
    <g fill="#99F6E4">
      <rect x="13" y="16" width="5" height="4" rx="1"/><rect x="23" y="16" width="5" height="4" rx="1"/>
      <rect x="36" y="16" width="5" height="4" rx="1"/><rect x="46" y="16" width="5" height="4" rx="1"/>
      <rect x="13" y="44" width="5" height="4" rx="1"/><rect x="23" y="44" width="5" height="4" rx="1"/>
      <rect x="36" y="44" width="5" height="4" rx="1"/><rect x="46" y="44" width="5" height="4" rx="1"/>
    </g>
    <path d="M25 27l-5 5 5 5M34 26l-4 12M39 27l5 5-5 5" fill="none" stroke="#F8FAFC" stroke-width="3" stroke-linecap="round" stroke-linejoin="round"/>
    <path d="M43 36l8 3.5-3.4 1.4-1.4 3.4L43 36z" fill="#FBBF24" stroke="#111827" stroke-width="1.25" stroke-linejoin="round"/>
  </g>
  <text x="104" y="61" fill="#F8FAFC" font-family="Inter, ui-sans-serif, system-ui, sans-serif" font-size="39" font-weight="720" letter-spacing="-1.2">Keyframe</text>
</svg>
